<svg id="my-svg" width="100%" xmlns="http://www.w3.org/2000/svg" xmlns:xlink="http://www.w3.org/1999/xlink" class="statediagram" style="max-width: 520.531px; background-color: white;" viewBox="0 0 520.53125 1656" role="graphics-document document" aria-roledescription="stateDiagram"><style>#my-svg{font-family:"trebuchet ms",verdana,arial,sans-serif;font-size:16px;fill:#333;}@keyframes edge-animation-frame{from{stroke-dashoffset:0;}}@keyframes dash{to{stroke-dashoffset:0;}}#my-svg .edge-animation-slow{stroke-dasharray:9,5!important;stroke-dashoffset:900;animation:dash 50s linear infinite;stroke-linecap:round;}#my-svg .edge-animation-fast{stroke-dasharray:9,5!important;stroke-dashoffset:900;animation:dash 20s linear infinite;stroke-linecap:round;}#my-svg .error-icon{fill:#552222;}#my-svg .error-text{fill:#552222;stroke:#552222;}#my-svg .edge-thickness-normal{stroke-width:1px;}#my-svg .edge-thickness-thick{stroke-width:3.5px;}#my-svg .edge-pattern-solid{stroke-dasharray:0;}#my-svg .edge-thickness-invisible{stroke-width:0;fill:none;}#my-svg .edge-pattern-dashed{stroke-dasharray:3;}#my-svg .edge-pattern-dotted{stroke-dasharray:2;}#my-svg .marker{fill:#333333;stroke:#333333;}#my-svg .marker.cross{stroke:#333333;}#my-svg svg{font-family:"trebuchet ms",verdana,arial,sans-serif;font-size:16px;}#my-svg p{margin:0;}#my-svg defs [id$="-barbEnd"]{fill:#333333;stroke:#333333;}#my-svg g.stateGroup text{fill:#9370DB;stroke:none;font-size:10px;}#my-svg g.stateGroup text{fill:#333;stroke:none;font-size:10px;}#my-svg g.stateGroup .state-title{font-weight:bolder;fill:#131300;}#my-svg g.stateGroup rect{fill:#ECECFF;stroke:#9370DB;}#my-svg g.stateGroup line{stroke:#333333;stroke-width:1;}#my-svg .transition{stroke:#333333;stroke-width:1;fill:none;}#my-svg .stateGroup .composit{fill:white;border-bottom:1px;}#my-svg .stateGroup .alt-composit{fill:#e0e0e0;border-bottom:1px;}#my-svg .state-note{stroke:#aaaa33;fill:#fff5ad;}#my-svg .state-note text{fill:black;stroke:none;font-size:10px;}#my-svg .stateLabel .box{stroke:none;stroke-width:0;fill:#ECECFF;opacity:0.5;}#my-svg .edgeLabel .label rect{fill:#ECECFF;opacity:0.5;}#my-svg .edgeLabel{background-color:rgba(232,232,232, 0.8);text-align:center;}#my-svg .edgeLabel p{background-color:rgba(232,232,232, 0.8);}#my-svg .edgeLabel rect{opacity:0.5;background-color:rgba(232,232,232, 0.8);fill:rgba(232,232,232, 0.8);}#my-svg .edgeLabel .label text{fill:#333;}#my-svg .label div .edgeLabel{color:#333;}#my-svg .stateLabel text{fill:#131300;font-size:10px;font-weight:bold;}#my-svg .node circle.state-start{fill:#333333;stroke:#333333;}#my-svg .node .fork-join{fill:#333333;stroke:#333333;}#my-svg .node circle.state-end{fill:#9370DB;stroke:white;stroke-width:1.5;}#my-svg .end-state-inner{fill:white;stroke-width:1.5;}#my-svg .node rect{fill:#ECECFF;stroke:#9370DB;stroke-width:1px;}#my-svg .node polygon{fill:#ECECFF;stroke:#9370DB;stroke-width:1px;}#my-svg [id$="-barbEnd"]{fill:#333333;}#my-svg .statediagram-cluster rect{fill:#ECECFF;stroke:#9370DB;stroke-width:1px;}#my-svg .cluster-label,#my-svg .nodeLabel{color:#131300;}#my-svg .statediagram-cluster rect.outer{rx:5px;ry:5px;}#my-svg .statediagram-state .divider{stroke:#9370DB;}#my-svg .statediagram-state .title-state{rx:5px;ry:5px;}#my-svg .statediagram-cluster.statediagram-cluster .inner{fill:white;}#my-svg .statediagram-cluster.statediagram-cluster-alt .inner{fill:#f0f0f0;}#my-svg .statediagram-cluster .inner{rx:0;ry:0;}#my-svg .statediagram-state rect.basic{rx:5px;ry:5px;}#my-svg .statediagram-state rect.divider{stroke-dasharray:10,10;fill:#f0f0f0;}#my-svg .note-edge{stroke-dasharray:5;}#my-svg .statediagram-note rect{fill:#fff5ad;stroke:#aaaa33;stroke-width:1px;rx:0;ry:0;}#my-svg .statediagram-note rect{fill:#fff5ad;stroke:#aaaa33;stroke-width:1px;rx:0;ry:0;}#my-svg .statediagram-note text{fill:black;}#my-svg .statediagram-note .nodeLabel{color:black;}#my-svg .statediagram .edgeLabel{color:red;}#my-svg [id$="-dependencyStart"],#my-svg [id$="-dependencyEnd"]{fill:#333333;stroke:#333333;stroke-width:1;}#my-svg .statediagramTitleText{text-anchor:middle;font-size:18px;fill:#333;}#my-svg [data-look="neo"].statediagram-cluster rect{fill:#ECECFF;stroke:#9370DB;stroke-width:1;}#my-svg [data-look="neo"].statediagram-cluster rect.outer{rx:5px;ry:5px;filter:drop-shadow(1px 2px 2px rgba(185, 185, 185, 1));}#my-svg .node .neo-node{stroke:#9370DB;}#my-svg [data-look="neo"].node rect,#my-svg [data-look="neo"].cluster rect,#my-svg [data-look="neo"].node polygon{stroke:#9370DB;filter:drop-shadow(1px 2px 2px rgba(185, 185, 185, 1));}#my-svg [data-look="neo"].swimlane.cluster rect{filter:none;}#my-svg [data-look="neo"].node path{stroke:#9370DB;stroke-width:1px;}#my-svg [data-look="neo"].node .outer-path{filter:drop-shadow(1px 2px 2px rgba(185, 185, 185, 1));}#my-svg [data-look="neo"].node .neo-line path{stroke:#9370DB;filter:none;}#my-svg [data-look="neo"].node circle{stroke:#9370DB;filter:drop-shadow(1px 2px 2px rgba(185, 185, 185, 1));}#my-svg [data-look="neo"].node circle .state-start{fill:#000000;}#my-svg [data-look="neo"].icon-shape .icon{fill:#9370DB;filter:drop-shadow(1px 2px 2px rgba(185, 185, 185, 1));}#my-svg [data-look="neo"].icon-shape .icon-neo path{stroke:#9370DB;filter:drop-shadow(1px 2px 2px rgba(185, 185, 185, 1));}#my-svg :root{--mermaid-font-family:"trebuchet ms",verdana,arial,sans-serif;}</style><g><defs><marker id="my-svg_stateDiagram-barbEnd" refX="19" refY="7" markerWidth="20" markerHeight="14" markerUnits="userSpaceOnUse" orient="auto"><path d="M 19,7 L9,13 L14,7 L9,1 Z"/></marker></defs><g class="root"><g class="clusters"/><g class="edgePaths"><path d="M260.266,22L260.266,26.167C260.266,30.333,260.266,38.667,260.266,47C260.266,55.333,260.266,63.667,260.266,67.833L260.266,72" id="my-svg-edge0" class="edge-thickness-normal edge-pattern-solid transition" style="fill:none;;;fill:none" data-edge="true" data-et="edge" data-id="edge0" data-points="W3sieCI6MjYwLjI2NTYyNSwieSI6MjJ9LHsieCI6MjYwLjI2NTYyNSwieSI6NDd9LHsieCI6MjYwLjI2NTYyNSwieSI6NzJ9XQ==" data-look="classic" marker-end="url(#my-svg_stateDiagram-barbEnd)"/><path d="M260.266,112L260.266,118.167C260.266,124.333,260.266,136.667,260.266,149C260.266,161.333,260.266,173.667,260.266,179.833L260.266,186" id="my-svg-edge1" class="edge-thickness-normal edge-pattern-solid transition" style="fill:none;;;fill:none" data-edge="true" data-et="edge" data-id="edge1" data-points="W3sieCI6MjYwLjI2NTYyNSwieSI6MTEyfSx7IngiOjI2MC4yNjU2MjUsInkiOjE0OX0seyJ4IjoyNjAuMjY1NjI1LCJ5IjoxODZ9XQ==" data-look="classic" marker-end="url(#my-svg_stateDiagram-barbEnd)"/><path d="M260.266,226L260.266,230.167C260.266,234.333,260.266,242.667,260.266,251C260.266,259.333,260.266,267.667,260.266,271.833L260.266,276" id="my-svg-edge2" class="edge-thickness-normal edge-pattern-solid transition" style="fill:none;;;fill:none" data-edge="true" data-et="edge" data-id="edge2" data-points="W3sieCI6MjYwLjI2NTYyNSwieSI6MjI2fSx7IngiOjI2MC4yNjU2MjUsInkiOjI1MX0seyJ4IjoyNjAuMjY1NjI1LCJ5IjoyNzZ9XQ==" data-look="classic" marker-end="url(#my-svg_stateDiagram-barbEnd)"/><path d="M260.266,316L260.266,320.167C260.266,324.333,260.266,332.667,260.266,341C260.266,349.333,260.266,357.667,260.266,361.833L260.266,366" id="my-svg-edge3" class="edge-thickness-normal edge-pattern-solid transition" style="fill:none;;;fill:none" data-edge="true" data-et="edge" data-id="edge3" data-points="W3sieCI6MjYwLjI2NTYyNSwieSI6MzE2fSx7IngiOjI2MC4yNjU2MjUsInkiOjM0MX0seyJ4IjoyNjAuMjY1NjI1LCJ5IjozNjZ9XQ==" data-look="classic" marker-end="url(#my-svg_stateDiagram-barbEnd)"/><path d="M260.266,406L260.266,410.167C260.266,414.333,260.266,422.667,260.349,431.083C260.432,439.5,260.599,448,260.682,452.25L260.766,456.5" id="my-svg-edge4" class="edge-thickness-normal edge-pattern-solid transition" style="fill:none;;;fill:none" data-edge="true" data-et="edge" data-id="edge4" data-points="W3sieCI6MjYwLjI2NTYyNSwieSI6NDA2fSx7IngiOjI2MC4yNjU2MjUsInkiOjQzMX0seyJ4IjoyNjAuNzY1NjI1LCJ5Ijo0NTYuNX1d" data-look="classic" marker-end="url(#my-svg_stateDiagram-barbEnd)"/><path d="M268.212,477.054L276.546,484.378C284.88,491.702,301.547,506.351,309.881,519.842C318.215,533.333,318.215,545.667,318.215,551.833L318.215,558" id="my-svg-edge5" class="edge-thickness-normal edge-pattern-solid transition" style="fill:none;;;fill:none" data-edge="true" data-et="edge" data-id="edge5" data-points="W3sieCI6MjY4LjIxMjExMzExNDQ0NTUsInkiOjQ3Ny4wNTM1MTE4ODU1NTQ1fSx7IngiOjMxOC4yMTQ4NDM3NSwieSI6NTIxfSx7IngiOjMxOC4yMTQ4NDM3NSwieSI6NTU4fV0=" data-look="classic" marker-end="url(#my-svg_stateDiagram-barbEnd)"/><path d="M260.266,942L260.266,946.167C260.266,950.333,260.266,958.667,260.266,967C260.266,975.333,260.266,983.667,260.266,987.833L260.266,992" id="my-svg-edge12" class="edge-thickness-normal edge-pattern-solid transition" style="fill:none;;;fill:none" data-edge="true" data-et="edge" data-id="edge12" data-points="W3sieCI6MjYwLjI2NTYyNSwieSI6OTQyfSx7IngiOjI2MC4yNjU2MjUsInkiOjk2N30seyJ4IjoyNjAuMjY1NjI1LCJ5Ijo5OTJ9XQ==" data-look="classic" marker-end="url(#my-svg_stateDiagram-barbEnd)"/><path d="M260.266,1032L260.266,1036.167C260.266,1040.333,260.266,1048.667,260.266,1057C260.266,1065.333,260.266,1073.667,260.266,1077.833L260.266,1082" id="my-svg-edge13" class="edge-thickness-normal edge-pattern-solid transition" style="fill:none;;;fill:none" data-edge="true" data-et="edge" data-id="edge13" data-points="W3sieCI6MjYwLjI2NTYyNSwieSI6MTAzMn0seyJ4IjoyNjAuMjY1NjI1LCJ5IjoxMDU3fSx7IngiOjI2MC4yNjU2MjUsInkiOjEwODJ9XQ==" data-look="classic" marker-end="url(#my-svg_stateDiagram-barbEnd)"/><path d="M260.266,1122L260.266,1126.167C260.266,1130.333,260.266,1138.667,260.266,1147C260.266,1155.333,260.266,1163.667,260.266,1167.833L260.266,1172" id="my-svg-edge14" class="edge-thickness-normal edge-pattern-solid transition" style="fill:none;;;fill:none" data-edge="true" data-et="edge" data-id="edge14" data-points="W3sieCI6MjYwLjI2NTYyNSwieSI6MTEyMn0seyJ4IjoyNjAuMjY1NjI1LCJ5IjoxMTQ3fSx7IngiOjI2MC4yNjU2MjUsInkiOjExNzJ9XQ==" data-look="classic" marker-end="url(#my-svg_stateDiagram-barbEnd)"/><path d="M260.266,1212L260.266,1216.167C260.266,1220.333,260.266,1228.667,260.266,1237C260.266,1245.333,260.266,1253.667,260.266,1257.833L260.266,1262" id="my-svg-edge15" class="edge-thickness-normal edge-pattern-solid transition" style="fill:none;;;fill:none" data-edge="true" data-et="edge" data-id="edge15" data-points="W3sieCI6MjYwLjI2NTYyNSwieSI6MTIxMn0seyJ4IjoyNjAuMjY1NjI1LCJ5IjoxMjM3fSx7IngiOjI2MC4yNjU2MjUsInkiOjEyNjJ9XQ==" data-look="classic" marker-end="url(#my-svg_stateDiagram-barbEnd)"/><path d="M260.266,1302L260.266,1306.167C260.266,1310.333,260.266,1318.667,260.349,1327.083C260.432,1335.5,260.599,1344,260.682,1348.25L260.766,1352.5" id="my-svg-edge16" class="edge-thickness-normal edge-pattern-solid transition" style="fill:none;;;fill:none" data-edge="true" data-et="edge" data-id="edge16" data-points="W3sieCI6MjYwLjI2NTYyNSwieSI6MTMwMn0seyJ4IjoyNjAuMjY1NjI1LCJ5IjoxMzI3fSx7IngiOjI2MC43NjU2MjUsInkiOjEzNTIuNX1d" data-look="classic" marker-end="url(#my-svg_stateDiagram-barbEnd)"/><path d="M268.546,1372.72L277.797,1380.1C287.049,1387.48,305.552,1402.24,314.803,1415.787C324.055,1429.333,324.055,1441.667,324.055,1447.833L324.055,1454" id="my-svg-edge17" class="edge-thickness-normal edge-pattern-solid transition" style="fill:none;;;fill:none" data-edge="true" data-et="edge" data-id="edge17" data-points="W3sieCI6MjY4LjU0NTUyMDE4ODE4NDg3LCJ5IjoxMzcyLjcyMDEwNDgxMTgxNTJ9LHsieCI6MzI0LjA1NDY4NzUsInkiOjE0MTd9LHsieCI6MzI0LjA1NDY4NzUsInkiOjE0NTR9XQ==" data-look="classic" marker-end="url(#my-svg_stateDiagram-barbEnd)"/><path d="M252.986,1372.72L243.568,1380.1C234.149,1387.48,215.313,1402.24,205.895,1419.12C196.477,1436,196.477,1455,196.477,1472C196.477,1489,196.477,1504,202.383,1515.667C208.289,1527.333,220.102,1535.667,226.009,1539.833L231.915,1544" id="my-svg-edge18" class="edge-thickness-normal edge-pattern-solid transition" style="fill:none;;;fill:none" data-edge="true" data-et="edge" data-id="edge18" data-points="W3sieCI6MjUyLjk4NTcyOTgxMTgxNTE2LCJ5IjoxMzcyLjcyMDEwNDgxMTgxNTJ9LHsieCI6MTk2LjQ3NjU2MjUsInkiOjE0MTd9LHsieCI6MTk2LjQ3NjU2MjUsInkiOjE0NzR9LHsieCI6MTk2LjQ3NjU2MjUsInkiOjE1MTl9LHsieCI6MjMxLjkxNDkzMDU1NTU1NTU0LCJ5IjoxNTQ0fV0=" data-look="classic" marker-end="url(#my-svg_stateDiagram-barbEnd)"/><path d="M324.055,1494L324.055,1498.167C324.055,1502.333,324.055,1510.667,318.148,1519C312.242,1527.333,300.429,1535.667,294.523,1539.833L288.616,1544" id="my-svg-edge19" class="edge-thickness-normal edge-pattern-solid transition" style="fill:none;;;fill:none" data-edge="true" data-et="edge" data-id="edge19" data-points="W3sieCI6MzI0LjA1NDY4NzUsInkiOjE0OTR9LHsieCI6MzI0LjA1NDY4NzUsInkiOjE1MTl9LHsieCI6Mjg4LjYxNjMxOTQ0NDQ0NDQ2LCJ5IjoxNTQ0fV0=" data-look="classic" marker-end="url(#my-svg_stateDiagram-barbEnd)"/><path d="M260.266,1584L260.266,1588.167C260.266,1592.333,260.266,1600.667,260.266,1608.999C260.266,1617.331,260.266,1625.662,260.266,1629.828L260.266,1633.993" id="my-svg-edge20" class="edge-thickness-normal edge-pattern-solid transition" style="fill:none;;;fill:none" data-edge="true" data-et="edge" data-id="edge20" data-points="W3sieCI6MjYwLjI2NTYyNSwieSI6MTU4NH0seyJ4IjoyNjAuMjY1NjI1LCJ5IjoxNjA5fSx7IngiOjI2MC4yNjU2MjUsInkiOjE2MzMuOTkzMzUzMzY2ODUxOH1d" data-look="classic" marker-end="url(#my-svg_stateDiagram-barbEnd)"/><path d="M246.266,482.321L238.941,488.768C231.616,495.214,216.966,508.107,209.641,524.054C202.316,540,202.316,559,202.316,576C202.316,593,202.316,608,204.218,619.667C206.119,631.333,209.921,639.667,211.823,643.833L213.724,648" id="my-svg-edge6" class="edge-thickness-normal edge-pattern-solid transition" style="fill:none;;;fill:none" data-edge="true" data-et="edge" data-id="edge6" data-points="W3sieCI6MjQ2LjI2NTYyNSwieSI6NDgyLjMyMTEzMjQ1NzAyNzN9LHsieCI6MjAyLjMxNjQwNjI1LCJ5Ijo1MjF9LHsieCI6MjAyLjMxNjQwNjI1LCJ5Ijo1Nzh9LHsieCI6MjAyLjMxNjQwNjI1LCJ5Ijo2MjN9LHsieCI6MjEzLjcyMzczMjc3NTU5MDU1LCJ5Ijo2NDh9XQ==" data-look="classic" marker-end="url(#my-svg_stateDiagram-barbEnd)"/><path d="M318.215,598L318.215,602.167C318.215,606.333,318.215,614.667,316.314,623C314.412,631.333,310.61,639.667,308.709,643.833L306.808,648" id="my-svg-edge7" class="edge-thickness-normal edge-pattern-solid transition" style="fill:none;;;fill:none" data-edge="true" data-et="edge" data-id="edge7" data-points="W3sieCI6MzE4LjIxNDg0Mzc1LCJ5Ijo1OTh9LHsieCI6MzE4LjIxNDg0Mzc1LCJ5Ijo2MjN9LHsieCI6MzA2LjgwNzUxNzIyNDQwOTUsInkiOjY0OH1d" data-look="classic" marker-end="url(#my-svg_stateDiagram-barbEnd)"/><path d="M260.266,852L260.266,856.167C260.266,860.333,260.266,868.667,260.266,877C260.266,885.333,260.266,893.667,260.266,897.833L260.266,902" id="my-svg-edge11" class="edge-thickness-normal edge-pattern-solid transition" style="fill:none;;;fill:none" data-edge="true" data-et="edge" data-id="edge11" data-points="W3sieCI6MjYwLjI2NTYyNSwieSI6ODUyfSx7IngiOjI2MC4yNjU2MjUsInkiOjg3N30seyJ4IjoyNjAuMjY1NjI1LCJ5Ijo5MDJ9XQ==" data-look="classic" marker-end="url(#my-svg_stateDiagram-barbEnd)"/></g><g class="edgeLabels"><g class="edgeLabel"><g class="label" data-id="edge0" transform="translate(0, 0)"><foreignObject width="0" height="0"><div xmlns="http://www.w3.org/1999/xhtml" class="labelBkg" style="display: table-cell; white-space: nowrap; line-height: 1.5; max-width: 200px; text-align: center;"><span class="edgeLabel"></span></div></foreignObject></g></g><g class="edgeLabel" transform="translate(260.265625, 149)"><g class="label" data-id="edge1" transform="translate(-65.96875, -12)"><foreignObject width="131.9375" height="24"><div xmlns="http://www.w3.org/1999/xhtml" class="labelBkg" style="display: table-cell; white-space: nowrap; line-height: 1.5; max-width: 200px; text-align: center;"><span class="edgeLabel"><p>Text/File Provided</p></span></div></foreignObject></g></g><g class="edgeLabel"><g class="label" data-id="edge2" transform="translate(0, 0)"><foreignObject width="0" height="0"><div xmlns="http://www.w3.org/1999/xhtml" class="labelBkg" style="display: table-cell; white-space: nowrap; line-height: 1.5; max-width: 200px; text-align: center;"><span class="edgeLabel"></span></div></foreignObject></g></g><g class="edgeLabel"><g class="label" data-id="edge3" transform="translate(0, 0)"><foreignObject width="0" height="0"><div xmlns="http://www.w3.org/1999/xhtml" class="labelBkg" style="display: table-cell; white-space: nowrap; line-height: 1.5; max-width: 200px; text-align: center;"><span class="edgeLabel"></span></div></foreignObject></g></g><g class="edgeLabel"><g class="label" data-id="edge4" transform="translate(0, 0)"><foreignObject width="0" height="0"><div xmlns="http://www.w3.org/1999/xhtml" class="labelBkg" style="display: table-cell; white-space: nowrap; line-height: 1.5; max-width: 200px; text-align: center;"><span class="edgeLabel"></span></div></foreignObject></g></g><g class="edgeLabel" transform="translate(318.21484375, 521)"><g class="label" data-id="edge5" transform="translate(-41.6328125, -12)"><foreignObject width="83.265625" height="24"><div xmlns="http://www.w3.org/1999/xhtml" class="labelBkg" style="display: table-cell; white-space: nowrap; line-height: 1.5; max-width: 200px; text-align: center;"><span class="edgeLabel"><p>Non-English</p></span></div></foreignObject></g></g><g class="edgeLabel"><g class="label" data-id="edge12" transform="translate(0, 0)"><foreignObject width="0" height="0"><div xmlns="http://www.w3.org/1999/xhtml" class="labelBkg" style="display: table-cell; white-space: nowrap; line-height: 1.5; max-width: 200px; text-align: center;"><span class="edgeLabel"></span></div></foreignObject></g></g><g class="edgeLabel"><g class="label" data-id="edge13" transform="translate(0, 0)"><foreignObject width="0" height="0"><div xmlns="http://www.w3.org/1999/xhtml" class="labelBkg" style="display: table-cell; white-space: nowrap; line-height: 1.5; max-width: 200px; text-align: center;"><span class="edgeLabel"></span></div></foreignObject></g></g><g class="edgeLabel"><g class="label" data-id="edge14" transform="translate(0, 0)"><foreignObject width="0" height="0"><div xmlns="http://www.w3.org/1999/xhtml" class="labelBkg" style="display: table-cell; white-space: nowrap; line-height: 1.5; max-width: 200px; text-align: center;"><span class="edgeLabel"></span></div></foreignObject></g></g><g class="edgeLabel"><g class="label" data-id="edge15" transform="translate(0, 0)"><foreignObject width="0" height="0"><div xmlns="http://www.w3.org/1999/xhtml" class="labelBkg" style="display: table-cell; white-space: nowrap; line-height: 1.5; max-width: 200px; text-align: center;"><span class="edgeLabel"></span></div></foreignObject></g></g><g class="edgeLabel"><g class="label" data-id="edge16" transform="translate(0, 0)"><foreignObject width="0" height="0"><div xmlns="http://www.w3.org/1999/xhtml" class="labelBkg" style="display: table-cell; white-space: nowrap; line-height: 1.5; max-width: 200px; text-align: center;"><span class="edgeLabel"></span></div></foreignObject></g></g><g class="edgeLabel" transform="translate(324.0546875, 1417)"><g class="label" data-id="edge17" transform="translate(-40.8125, -12)"><foreignObject width="81.625" height="24"><div xmlns="http://www.w3.org/1999/xhtml" class="labelBkg" style="display: table-cell; white-space: nowrap; line-height: 1.5; max-width: 200px; text-align: center;"><span class="edgeLabel"><p>Save = True</p></span></div></foreignObject></g></g><g class="edgeLabel" transform="translate(196.4765625, 1474)"><g class="label" data-id="edge18" transform="translate(-43.7109375, -12)"><foreignObject width="87.421875" height="24"><div xmlns="http://www.w3.org/1999/xhtml" class="labelBkg" style="display: table-cell; white-space: nowrap; line-height: 1.5; max-width: 200px; text-align: center;"><span class="edgeLabel"><p>Save = False</p></span></div></foreignObject></g></g><g class="edgeLabel"><g class="label" data-id="edge19" transform="translate(0, 0)"><foreignObject width="0" height="0"><div xmlns="http://www.w3.org/1999/xhtml" class="labelBkg" style="display: table-cell; white-space: nowrap; line-height: 1.5; max-width: 200px; text-align: center;"><span class="edgeLabel"></span></div></foreignObject></g></g><g class="edgeLabel"><g class="label" data-id="edge20" transform="translate(0, 0)"><foreignObject width="0" height="0"><div xmlns="http://www.w3.org/1999/xhtml" class="labelBkg" style="display: table-cell; white-space: nowrap; line-height: 1.5; max-width: 200px; text-align: center;"><span class="edgeLabel"></span></div></foreignObject></g></g><g class="edgeLabel" transform="translate(202.31640625, 578)"><g class="label" data-id="edge6" transform="translate(-24.921875, -12)"><foreignObject width="49.84375" height="24"><div xmlns="http://www.w3.org/1999/xhtml" class="labelBkg" style="display: table-cell; white-space: nowrap; line-height: 1.5; max-width: 200px; text-align: center;"><span class="edgeLabel"><p>English</p></span></div></foreignObject></g></g><g class="edgeLabel"><g class="label" data-id="edge7" transform="translate(0, 0)"><foreignObject width="0" height="0"><div xmlns="http://www.w3.org/1999/xhtml" class="labelBkg" style="display: table-cell; white-space: nowrap; line-height: 1.5; max-width: 200px; text-align: center;"><span class="edgeLabel"></span></div></foreignObject></g></g><g class="edgeLabel"><g class="label" data-id="edge11" transform="translate(0, 0)"><foreignObject width="0" height="0"><div xmlns="http://www.w3.org/1999/xhtml" class="labelBkg" style="display: table-cell; white-space: nowrap; line-height: 1.5; max-width: 200px; text-align: center;"><span class="edgeLabel"></span></div></foreignObject></g></g></g><g class="nodes"><g class="node default" id="my-svg-state-root_start-0" data-look="classic" transform="translate(260.265625, 15)"><circle class="state-start" r="7" width="14" height="14"/></g><g class="node  statediagram-state" id="my-svg-state-ValidateInput-1" data-look="classic" transform="translate(260.265625, 92)"><rect class="basic label-container" style="" rx="5" ry="5" x="-55.7109375" y="-20" width="111.421875" height="40"/><g class="label" style="" transform="translate(-47.7109375, -12)"><rect/><foreignObject width="95.421875" height="24"><div xmlns="http://www.w3.org/1999/xhtml" style="display: table-cell; white-space: nowrap; line-height: 1.5; max-width: 200px; text-align: center;"><span class="nodeLabel markdown-node-label"><p>ValidateInput</p></span></div></foreignObject></g></g><g class="node  statediagram-state" id="my-svg-state-ExtractText-2" data-look="classic" transform="translate(260.265625, 206)"><rect class="basic label-container" style="" rx="5" ry="5" x="-49.1015625" y="-20" width="98.203125" height="40"/><g class="label" style="" transform="translate(-41.1015625, -12)"><rect/><foreignObject width="82.203125" height="24"><div xmlns="http://www.w3.org/1999/xhtml" style="display: table-cell; white-space: nowrap; line-height: 1.5; max-width: 200px; text-align: center;"><span class="nodeLabel markdown-node-label"><p>ExtractText</p></span></div></foreignObject></g></g><g class="node  statediagram-state" id="my-svg-state-PIIMasking-3" data-look="classic" transform="translate(260.265625, 296)"><rect class="basic label-container" style="" rx="5" ry="5" x="-44.734375" y="-20" width="89.46875" height="40"/><g class="label" style="" transform="translate(-36.734375, -12)"><rect/><foreignObject width="73.46875" height="24"><div xmlns="http://www.w3.org/1999/xhtml" style="display: table-cell; white-space: nowrap; line-height: 1.5; max-width: 200px; text-align: center;"><span class="nodeLabel markdown-node-label"><p>PIIMasking</p></span></div></foreignObject></g></g><g class="node  statediagram-state" id="my-svg-state-DetectLanguage-4" data-look="classic" transform="translate(260.265625, 386)"><rect class="basic label-container" style="" rx="5" ry="5" x="-65.53125" y="-20" width="131.0625" height="40"/><g class="label" style="" transform="translate(-57.53125, -12)"><rect/><foreignObject width="115.0625" height="24"><div xmlns="http://www.w3.org/1999/xhtml" style="display: table-cell; white-space: nowrap; line-height: 1.5; max-width: 200px; text-align: center;"><span class="nodeLabel markdown-node-label"><p>DetectLanguage</p></span></div></foreignObject></g></g><g class="node  statediagram-state" id="my-svg-state-DetectLanguage_Choice-6" data-look="classic" transform="translate(260.265625, 470)"><g><path d="M0 14 C3.2025084858561734 10.797491514143827, 6.405016971712347 7.594983028287653, 14 0 C9.679498771930128 -4.3205012280698725, 5.358997543860255 -8.641002456139745, 0 -14 C-4.298345151237909 -9.701654848762091, -8.596690302475817 -5.4033096975241826, -14 0 C-10.599711377201514 3.400288622798486, -7.199422754403028 6.800577245596972, 0 14" stroke="none" stroke-width="0" fill="#ECECFF" style=""/><path d="M0 14 C2.9923448712886866 11.007655128711313, 5.984689742577373 8.015310257422627, 14 0 M0 14 C3.545267748479856 10.454732251520145, 7.090535496959712 6.909464503040288, 14 0 M14 0 C9.772625613596405 -4.227374386403595, 5.545251227192811 -8.45474877280719, 0 -14 M14 0 C9.68827738784391 -4.311722612156091, 5.3765547756878185 -8.623445224312182, 0 -14 M0 -14 C-3.175555717314121 -10.824444282685878, -6.351111434628242 -7.648888565371758, -14 0 M0 -14 C-5.0918095077641965 -8.908190492235804, -10.183619015528393 -3.816380984471607, -14 0 M-14 0 C-10.49439446353128 3.5056055364687193, -6.988788927062561 7.011211072937439, 0 14 M-14 0 C-11.132489459789898 2.8675105402101013, -8.264978919579796 5.735021080420203, 0 14" stroke="#9370DB" stroke-width="1.3" fill="none" stroke-dasharray="0 0" style=""/></g></g><g class="node  statediagram-state" id="my-svg-state-TranslateText-7" data-look="classic" transform="translate(318.21484375, 578)"><rect class="basic label-container" style="" rx="5" ry="5" x="-55.9765625" y="-20" width="111.953125" height="40"/><g class="label" style="" transform="translate(-47.9765625, -12)"><rect/><foreignObject width="95.953125" height="24"><div xmlns="http://www.w3.org/1999/xhtml" style="display: table-cell; white-space: nowrap; line-height: 1.5; max-width: 200px; text-align: center;"><span class="nodeLabel markdown-node-label"><p>TranslateText</p></span></div></foreignObject></g></g><g class="root" transform="translate(0, 640)"><g class="clusters"><g class="statediagram-state statediagram-cluster" id="my-svg-state-PredictModels-11" data-id="PredictModels" data-look="classic"><g><rect class="outer" x="8" y="8" width="504.53125" height="204" data-look="classic"/></g><g class="cluster-label" transform="translate(210.4453125, 9)"><foreignObject width="99.640625" height="24"><div xmlns="http://www.w3.org/1999/xhtml" style="display: table-cell; white-space: nowrap; line-height: 1.5;"><span class="nodeLabel"><p>PredictModels</p></span></div></foreignObject></g><rect class="inner" x="8" y="34" width="504.53125" height="174"/></g></g><g class="edgePaths"><path d="M260.34,54.283L233.317,61.403C206.295,68.522,152.249,82.761,125.226,96.131C98.203,109.5,98.203,122,98.203,128.25L98.203,134.5" id="my-svg-edge8" class="edge-thickness-normal edge-pattern-solid transition" style="fill:none;;;fill:none" data-edge="true" data-et="edge" data-id="edge8" data-points="W3sieCI6MjYwLjM0MDM1NjQwMDUxNTIsInkiOjU0LjI4MzM2NDAxMjE0OTE4NX0seyJ4Ijo5OC4yMDMxMjUsInkiOjk3fSx7IngiOjk4LjIwMzEyNSwieSI6MTM0LjV9XQ==" data-look="classic" marker-end="url(#my-svg_stateDiagram-barbEnd)"/><path d="M267.109,59.5L267.109,65.75C267.109,72,267.109,84.5,267.109,97C267.109,109.5,267.109,122,267.109,128.25L267.109,134.5" id="my-svg-edge9" class="edge-thickness-normal edge-pattern-solid transition" style="fill:none;;;fill:none" data-edge="true" data-et="edge" data-id="edge9" data-points="W3sieCI6MjY3LjEwOTM3NSwieSI6NTkuNX0seyJ4IjoyNjcuMTA5Mzc1LCJ5Ijo5N30seyJ4IjoyNjcuMTA5Mzc1LCJ5IjoxMzQuNX1d" data-look="classic" marker-end="url(#my-svg_stateDiagram-barbEnd)"/><path d="M273.86,54.353L299.745,61.461C325.63,68.569,377.401,82.784,403.286,96.142C429.172,109.5,429.172,122,429.172,128.25L429.172,134.5" id="my-svg-edge10" class="edge-thickness-normal edge-pattern-solid transition" style="fill:none;;;fill:none" data-edge="true" data-et="edge" data-id="edge10" data-points="W3sieCI6MjczLjg1OTUyNzcxODA2MDM1LCJ5Ijo1NC4zNTM0OTM1MzQ2MTU4N30seyJ4Ijo0MjkuMTcxODc1LCJ5Ijo5N30seyJ4Ijo0MjkuMTcxODc1LCJ5IjoxMzQuNX1d" data-look="classic" marker-end="url(#my-svg_stateDiagram-barbEnd)"/></g><g class="edgeLabels"><g class="edgeLabel"><g class="label" data-id="edge8" transform="translate(0, 0)"><foreignObject width="0" height="0"><div xmlns="http://www.w3.org/1999/xhtml" class="labelBkg" style="display: table-cell; white-space: nowrap; line-height: 1.5; max-width: 200px; text-align: center;"><span class="edgeLabel"></span></div></foreignObject></g></g><g class="edgeLabel"><g class="label" data-id="edge9" transform="translate(0, 0)"><foreignObject width="0" height="0"><div xmlns="http://www.w3.org/1999/xhtml" class="labelBkg" style="display: table-cell; white-space: nowrap; line-height: 1.5; max-width: 200px; text-align: center;"><span class="edgeLabel"></span></div></foreignObject></g></g><g class="edgeLabel"><g class="label" data-id="edge10" transform="translate(0, 0)"><foreignObject width="0" height="0"><div xmlns="http://www.w3.org/1999/xhtml" class="labelBkg" style="display: table-cell; white-space: nowrap; line-height: 1.5; max-width: 200px; text-align: center;"><span class="edgeLabel"></span></div></foreignObject></g></g></g><g class="nodes"><g class="node default" id="my-svg-state-PredictModels_start-10" data-look="classic" transform="translate(267.109375, 52.5)"><circle class="state-start" r="7" width="14" height="14"/></g><g class="node  statediagram-state" id="my-svg-state-NeuralEngine-8" data-look="classic" transform="translate(98.203125, 154.5)"><rect class="basic label-container" style="" rx="5" ry="5" x="-55.203125" y="-20" width="110.40625" height="40"/><g class="label" style="" transform="translate(-47.203125, -12)"><rect/><foreignObject width="94.40625" height="24"><div xmlns="http://www.w3.org/1999/xhtml" style="display: table-cell; white-space: nowrap; line-height: 1.5; max-width: 200px; text-align: center;"><span class="nodeLabel markdown-node-label"><p>NeuralEngine</p></span></div></foreignObject></g></g><g class="node  statediagram-state" id="my-svg-state-HeuristicEngine-9" data-look="classic" transform="translate(267.109375, 154.5)"><rect class="basic label-container" style="" rx="5" ry="5" x="-63.703125" y="-20" width="127.40625" height="40"/><g class="label" style="" transform="translate(-55.703125, -12)"><rect/><foreignObject width="111.40625" height="24"><div xmlns="http://www.w3.org/1999/xhtml" style="display: table-cell; white-space: nowrap; line-height: 1.5; max-width: 200px; text-align: center;"><span class="nodeLabel markdown-node-label"><p>HeuristicEngine</p></span></div></foreignObject></g></g><g class="node  statediagram-state" id="my-svg-state-ThreatIntel-10" data-look="classic" transform="translate(429.171875, 154.5)"><rect class="basic label-container" style="" rx="5" ry="5" x="-48.359375" y="-20" width="96.71875" height="40"/><g class="label" style="" transform="translate(-40.359375, -12)"><rect/><foreignObject width="80.71875" height="24"><div xmlns="http://www.w3.org/1999/xhtml" style="display: table-cell; white-space: nowrap; line-height: 1.5; max-width: 200px; text-align: center;"><span class="nodeLabel markdown-node-label"><p>ThreatIntel</p></span></div></foreignObject></g></g></g></g><g class="node  statediagram-state" id="my-svg-state-NoisyORFusion-12" data-look="classic" transform="translate(260.265625, 922)"><rect class="basic label-container" style="" rx="5" ry="5" x="-59.6640625" y="-20" width="119.328125" height="40"/><g class="label" style="" transform="translate(-51.6640625, -12)"><rect/><foreignObject width="103.328125" height="24"><div xmlns="http://www.w3.org/1999/xhtml" style="display: table-cell; white-space: nowrap; line-height: 1.5; max-width: 200px; text-align: center;"><span class="nodeLabel markdown-node-label"><p>NoisyORFusion</p></span></div></foreignObject></g></g><g class="node  statediagram-state" id="my-svg-state-RiskScoring-13" data-look="classic" transform="translate(260.265625, 1012)"><rect class="basic label-container" style="" rx="5" ry="5" x="-48.09375" y="-20" width="96.1875" height="40"/><g class="label" style="" transform="translate(-40.09375, -12)"><rect/><foreignObject width="80.1875" height="24"><div xmlns="http://www.w3.org/1999/xhtml" style="display: table-cell; white-space: nowrap; line-height: 1.5; max-width: 200px; text-align: center;"><span class="nodeLabel markdown-node-label"><p>RiskScoring</p></span></div></foreignObject></g></g><g class="node  statediagram-state" id="my-svg-state-JobIntel-14" data-look="classic" transform="translate(260.265625, 1102)"><rect class="basic label-container" style="" rx="5" ry="5" x="-37.0546875" y="-20" width="74.109375" height="40"/><g class="label" style="" transform="translate(-29.0546875, -12)"><rect/><foreignObject width="58.109375" height="24"><div xmlns="http://www.w3.org/1999/xhtml" style="display: table-cell; white-space: nowrap; line-height: 1.5; max-width: 200px; text-align: center;"><span class="nodeLabel markdown-node-label"><p>JobIntel</p></span></div></foreignObject></g></g><g class="node  statediagram-state" id="my-svg-state-EvidencePlan-15" data-look="classic" transform="translate(260.265625, 1192)"><rect class="basic label-container" style="" rx="5" ry="5" x="-55.3984375" y="-20" width="110.796875" height="40"/><g class="label" style="" transform="translate(-47.3984375, -12)"><rect/><foreignObject width="94.796875" height="24"><div xmlns="http://www.w3.org/1999/xhtml" style="display: table-cell; white-space: nowrap; line-height: 1.5; max-width: 200px; text-align: center;"><span class="nodeLabel markdown-node-label"><p>EvidencePlan</p></span></div></foreignObject></g></g><g class="node  statediagram-state" id="my-svg-state-SaveHistory-16" data-look="classic" transform="translate(260.265625, 1282)"><rect class="basic label-container" style="" rx="5" ry="5" x="-49.609375" y="-20" width="99.21875" height="40"/><g class="label" style="" transform="translate(-41.609375, -12)"><rect/><foreignObject width="83.21875" height="24"><div xmlns="http://www.w3.org/1999/xhtml" style="display: table-cell; white-space: nowrap; line-height: 1.5; max-width: 200px; text-align: center;"><span class="nodeLabel markdown-node-label"><p>SaveHistory</p></span></div></foreignObject></g></g><g class="node  statediagram-state" id="my-svg-state-SaveHistory_Choice-18" data-look="classic" transform="translate(260.265625, 1366)"><g><path d="M0 14 C3.852682188220692 10.147317811779308, 7.705364376441384 6.294635623558616, 14 0 C10.851014997657419 -3.1489850023425814, 7.702029995314837 -6.297970004685163, 0 -14 C-5.523150141942688 -8.476849858057312, -11.046300283885376 -2.953699716114624, -14 0 C-8.820748160040111 5.179251839959888, -3.6414963200802237 10.358503679919776, 0 14" stroke="none" stroke-width="0" fill="#ECECFF" style=""/><path d="M0 14 C2.893406004724016 11.106593995275984, 5.786812009448032 8.213187990551969, 14 0 M0 14 C3.708761322247538 10.291238677752462, 7.417522644495076 6.582477355504924, 14 0 M14 0 C10.362815678325388 -3.6371843216746123, 6.7256313566507755 -7.2743686433492245, 0 -14 M14 0 C8.781398693060783 -5.218601306939218, 3.5627973861215647 -10.437202613878435, 0 -14 M0 -14 C-3.952116748399275 -10.047883251600725, -7.90423349679855 -6.09576650320145, -14 0 M0 -14 C-4.185958949160545 -9.814041050839455, -8.37191789832109 -5.62808210167891, -14 0 M-14 0 C-8.78593824691335 5.21406175308665, -3.5718764938267 10.4281235061733, 0 14 M-14 0 C-8.812024310276485 5.187975689723515, -3.624048620552969 10.37595137944703, 0 14" stroke="#9370DB" stroke-width="1.3" fill="none" stroke-dasharray="0 0" style=""/></g></g><g class="node  statediagram-state" id="my-svg-state-PersistToDB-19" data-look="classic" transform="translate(324.0546875, 1474)"><rect class="basic label-container" style="" rx="5" ry="5" x="-48.8671875" y="-20" width="97.734375" height="40"/><g class="label" style="" transform="translate(-40.8671875, -12)"><rect/><foreignObject width="81.734375" height="24"><div xmlns="http://www.w3.org/1999/xhtml" style="display: table-cell; white-space: nowrap; line-height: 1.5; max-width: 200px; text-align: center;"><span class="nodeLabel markdown-node-label"><p>PersistToDB</p></span></div></foreignObject></g></g><g class="node  statediagram-state" id="my-svg-state-ReturnJSON-20" data-look="classic" transform="translate(260.265625, 1564)"><rect class="basic label-container" style="" rx="5" ry="5" x="-49.875" y="-20" width="99.75" height="40"/><g class="label" style="" transform="translate(-41.875, -12)"><rect/><foreignObject width="83.75" height="24"><div xmlns="http://www.w3.org/1999/xhtml" style="display: table-cell; white-space: nowrap; line-height: 1.5; max-width: 200px; text-align: center;"><span class="nodeLabel markdown-node-label"><p>ReturnJSON</p></span></div></foreignObject></g></g><g class="node default" id="my-svg-state-root_end-20" data-look="classic" transform="translate(260.265625, 1641)"><g class="outer-path"><path d="M7 0 C7 0.40517908122283747, 6.964012880168563 0.816513743121899, 6.893654271085456 1.2155372436685123 C6.823295662002349 1.6145607442151257, 6.716427752933756 2.013397210557766, 6.5778483455013586 2.394141003279681 C6.439268938068961 2.7748847960015954, 6.26476736710249 3.149104622578984, 6.062177826491071 3.4999999999999996 C5.859588285879653 3.8508953774210153, 5.622755194947063 4.189128084166967, 5.362311101832846 4.499513267805774 C5.10186700871863 4.809898451444582, 4.809898451444583 5.10186700871863, 4.499513267805775 5.362311101832846 C4.189128084166968 5.622755194947063, 3.8508953774210166 5.859588285879652, 3.500000000000001 6.06217782649107 C3.149104622578985 6.264767367102489, 2.7748847960015963 6.439268938068961, 2.3941410032796817 6.5778483455013586 C2.013397210557767 6.716427752933756, 1.6145607442151264 6.823295662002349, 1.2155372436685128 6.893654271085456 C0.8165137431218992 6.964012880168563, 0.4051790812228379 7, 4.286263797015736e-16 7 C-0.405179081222837 7, -0.8165137431218985 6.964012880168563, -1.2155372436685121 6.893654271085456 C-1.6145607442151257 6.823295662002349, -2.0133972105577667 6.716427752933756, -2.394141003279681 6.5778483455013586 C-2.774884796001595 6.439268938068961, -3.149104622578983 6.26476736710249, -3.4999999999999982 6.062177826491071 C-3.8508953774210135 5.859588285879653, -4.189128084166966 5.6227551949470636, -4.499513267805773 5.362311101832848 C-4.809898451444581 5.101867008718632, -5.101867008718628 4.809898451444586, -5.3623111018328435 4.499513267805779 C-5.622755194947059 4.189128084166971, -5.859588285879649 3.8508953774210206, -6.062177826491068 3.5000000000000053 C-6.264767367102486 3.14910462257899, -6.439268938068958 2.774884796001602, -6.577848345501356 2.394141003279688 C-6.716427752933754 2.0133972105577738, -6.823295662002347 1.614560744215134, -6.893654271085454 1.215537243668521 C-6.9640128801685615 0.816513743121908, -6.999999999999999 0.4051790812228472, -7 1.0183126166254463e-14 C-7.000000000000001 -0.40517908122282686, -6.964012880168565 -0.8165137431218878, -6.893654271085459 -1.215537243668501 C-6.823295662002352 -1.6145607442151142, -6.716427752933759 -2.0133972105577542, -6.577848345501363 -2.394141003279669 C-6.439268938068967 -2.7748847960015834, -6.264767367102496 -3.149104622578972, -6.062177826491078 -3.4999999999999876 C-5.859588285879661 -3.8508953774210033, -5.6227551949470715 -4.1891280841669545, -5.362311101832856 -4.499513267805763 C-5.10186700871864 -4.809898451444571, -4.809898451444594 -5.10186700871862, -4.499513267805787 -5.362311101832836 C-4.189128084166979 -5.622755194947053, -3.850895377421028 -5.859588285879643, -3.5000000000000133 -6.062177826491062 C-3.1491046225789985 -6.264767367102482, -2.774884796001611 -6.439268938068954, -2.3941410032796973 -6.577848345501353 C-2.0133972105577835 -6.716427752933752, -1.6145607442151435 -6.823295662002345, -1.2155372436685306 -6.893654271085453 C-0.8165137431219176 -6.9640128801685615, -0.40517908122285695 -6.999999999999999, -1.9937625952807352e-14 -7 C0.4051790812228171 -7.000000000000001, 0.8165137431218781 -6.964012880168565, 1.2155372436684913 -6.89365427108546 C1.6145607442151044 -6.823295662002354, 2.013397210557745 -6.716427752933763, 2.3941410032796595 -6.5778483455013665 C2.774884796001574 -6.43926893806897, 3.149104622578963 -6.2647673671025, 3.499999999999979 -6.062177826491083 C3.8508953774209953 -5.859588285879665, 4.189128084166947 -5.622755194947077, 4.499513267805756 -5.362311101832862 C4.809898451444564 -5.1018670087186475, 5.101867008718613 -4.809898451444602, 5.362311101832829 -4.499513267805796 C5.622755194947046 -4.189128084166989, 5.859588285879637 -3.8508953774210393, 6.062177826491056 -3.500000000000025 C6.2647673671024755 -3.1491046225790105, 6.439268938068949 -2.774884796001623, 6.577848345501348 -2.3941410032797092 C6.716427752933747 -2.0133972105577955, 6.823295662002342 -1.6145607442151562, 6.893654271085451 -1.2155372436685434 C6.96401288016856 -0.8165137431219307, 6.982275711847575 -0.2025895406114567, 7 -3.2800750208310675e-14 C7.017724288152425 0.2025895406113911, 7.017724288152424 -0.2025895406114242, 7 0" stroke="none" stroke-width="0" fill="#ECECFF" style=""/><path d="M7 0 C7 0.40517908122283747, 6.964012880168563 0.816513743121899, 6.893654271085456 1.2155372436685123 C6.823295662002349 1.6145607442151257, 6.716427752933756 2.013397210557766, 6.5778483455013586 2.394141003279681 C6.439268938068961 2.7748847960015954, 6.26476736710249 3.149104622578984, 6.062177826491071 3.4999999999999996 C5.859588285879653 3.8508953774210153, 5.622755194947063 4.189128084166967, 5.362311101832846 4.499513267805774 C5.10186700871863 4.809898451444582, 4.809898451444583 5.10186700871863, 4.499513267805775 5.362311101832846 C4.189128084166968 5.622755194947063, 3.8508953774210166 5.859588285879652, 3.500000000000001 6.06217782649107 C3.149104622578985 6.264767367102489, 2.7748847960015963 6.439268938068961, 2.3941410032796817 6.5778483455013586 C2.013397210557767 6.716427752933756, 1.6145607442151264 6.823295662002349, 1.2155372436685128 6.893654271085456 C0.8165137431218992 6.964012880168563, 0.4051790812228379 7, 4.286263797015736e-16 7 C-0.405179081222837 7, -0.8165137431218985 6.964012880168563, -1.2155372436685121 6.893654271085456 C-1.6145607442151257 6.823295662002349, -2.0133972105577667 6.716427752933756, -2.394141003279681 6.5778483455013586 C-2.774884796001595 6.439268938068961, -3.149104622578983 6.26476736710249, -3.4999999999999982 6.062177826491071 C-3.8508953774210135 5.859588285879653, -4.189128084166966 5.6227551949470636, -4.499513267805773 5.362311101832848 C-4.809898451444581 5.101867008718632, -5.101867008718628 4.809898451444586, -5.3623111018328435 4.499513267805779 C-5.622755194947059 4.189128084166971, -5.859588285879649 3.8508953774210206, -6.062177826491068 3.5000000000000053 C-6.264767367102486 3.14910462257899, -6.439268938068958 2.774884796001602, -6.577848345501356 2.394141003279688 C-6.716427752933754 2.0133972105577738, -6.823295662002347 1.614560744215134, -6.893654271085454 1.215537243668521 C-6.9640128801685615 0.816513743121908, -6.999999999999999 0.4051790812228472, -7 1.0183126166254463e-14 C-7.000000000000001 -0.40517908122282686, -6.964012880168565 -0.8165137431218878, -6.893654271085459 -1.215537243668501 C-6.823295662002352 -1.6145607442151142, -6.716427752933759 -2.0133972105577542, -6.577848345501363 -2.394141003279669 C-6.439268938068967 -2.7748847960015834, -6.264767367102496 -3.149104622578972, -6.062177826491078 -3.4999999999999876 C-5.859588285879661 -3.8508953774210033, -5.6227551949470715 -4.1891280841669545, -5.362311101832856 -4.499513267805763 C-5.10186700871864 -4.809898451444571, -4.809898451444594 -5.10186700871862, -4.499513267805787 -5.362311101832836 C-4.189128084166979 -5.622755194947053, -3.850895377421028 -5.859588285879643, -3.5000000000000133 -6.062177826491062 C-3.1491046225789985 -6.264767367102482, -2.774884796001611 -6.439268938068954, -2.3941410032796973 -6.577848345501353 C-2.0133972105577835 -6.716427752933752, -1.6145607442151435 -6.823295662002345, -1.2155372436685306 -6.893654271085453 C-0.8165137431219176 -6.9640128801685615, -0.40517908122285695 -6.999999999999999, -1.9937625952807352e-14 -7 C0.4051790812228171 -7.000000000000001, 0.8165137431218781 -6.964012880168565, 1.2155372436684913 -6.89365427108546 C1.6145607442151044 -6.823295662002354, 2.013397210557745 -6.716427752933763, 2.3941410032796595 -6.5778483455013665 C2.774884796001574 -6.43926893806897, 3.149104622578963 -6.2647673671025, 3.499999999999979 -6.062177826491083 C3.8508953774209953 -5.859588285879665, 4.189128084166947 -5.622755194947077, 4.499513267805756 -5.362311101832862 C4.809898451444564 -5.1018670087186475, 5.101867008718613 -4.809898451444602, 5.362311101832829 -4.499513267805796 C5.622755194947046 -4.189128084166989, 5.859588285879637 -3.8508953774210393, 6.062177826491056 -3.500000000000025 C6.2647673671024755 -3.1491046225790105, 6.439268938068949 -2.774884796001623, 6.577848345501348 -2.3941410032797092 C6.716427752933747 -2.0133972105577955, 6.823295662002342 -1.6145607442151562, 6.893654271085451 -1.2155372436685434 C6.96401288016856 -0.8165137431219307, 6.982275711847575 -0.2025895406114567, 7 -3.2800750208310675e-14 C7.017724288152425 0.2025895406113911, 7.017724288152424 -0.2025895406114242, 7 0" stroke="#333333" stroke-width="2" fill="none" stroke-dasharray="0 0" style=""/><g><path d="M2.5 0 C2.5 0.14470681472244193, 2.487147457203058 0.29161205111496386, 2.46201938253052 0.4341204441673258 C2.436891307857982 0.5766288372196877, 2.3987241974763416 0.7190704323420595, 2.3492315519647713 0.8550503583141718 C2.299738906453201 0.991030284286284, 2.2374169168223177 1.124680222349637, 2.165063509461097 1.2499999999999998 C2.092710102099876 1.3753197776503625, 2.0081268553382365 1.496117172916774, 1.915111107797445 1.6069690242163481 C1.8220953602566536 1.7178208755159223, 1.7178208755159226 1.8220953602566536, 1.6069690242163484 1.915111107797445 C1.4961171729167742 2.0081268553382365, 1.375319777650363 2.0927101020998755, 1.2500000000000002 2.1650635094610964 C1.1246802223496375 2.2374169168223172, 0.9910302842862845 2.2997389064532, 0.8550503583141721 2.349231551964771 C0.7190704323420597 2.3987241974763416, 0.576628837219688 2.436891307857982, 0.43412044416732604 2.46201938253052 C0.291612051114964 2.487147457203058, 0.14470681472244212 2.5, 1.5308084989341916e-16 2.5 C-0.1447068147224418 2.5, -0.2916120511149638 2.487147457203058, -0.43412044416732576 2.46201938253052 C-0.5766288372196877 2.436891307857982, -0.7190704323420595 2.3987241974763416, -0.8550503583141718 2.3492315519647713 C-0.991030284286284 2.299738906453201, -1.124680222349637 2.2374169168223177, -1.2499999999999996 2.165063509461097 C-1.375319777650362 2.092710102099876, -1.4961171729167733 2.008126855338237, -1.6069690242163475 1.9151111077974459 C-1.7178208755159217 1.8220953602566548, -1.822095360256653 1.7178208755159234, -1.9151111077974443 1.6069690242163495 C-2.0081268553382357 1.4961171729167755, -2.0927101020998746 1.3753197776503645, -2.1650635094610955 1.250000000000002 C-2.2374169168223164 1.1246802223496395, -2.2997389064531992 0.9910302842862865, -2.34923155196477 0.8550503583141743 C-2.3987241974763407 0.7190704323420621, -2.436891307857981 0.5766288372196907, -2.4620193825305194 0.434120444167329 C-2.487147457203058 0.29161205111496724, -2.5 0.14470681472244545, -2.5 3.636830773662308e-15 C-2.5 -0.14470681472243818, -2.4871474572030587 -0.2916120511149599, -2.4620193825305208 -0.4341204441673218 C-2.436891307857983 -0.5766288372196837, -2.398724197476343 -0.7190704323420553, -2.3492315519647726 -0.8550503583141675 C-2.2997389064532023 -0.9910302842862798, -2.23741691682232 -1.1246802223496328, -2.165063509461099 -1.2499999999999956 C-2.092710102099878 -1.3753197776503583, -2.00812685533824 -1.4961171729167695, -1.9151111077974488 -1.606969024216344 C-1.8220953602566576 -1.7178208755159183, -1.7178208755159263 -1.82209536025665, -1.6069690242163523 -1.9151111077974416 C-1.4961171729167784 -2.0081268553382334, -1.3753197776503672 -2.0927101020998724, -1.2500000000000047 -2.1650635094610937 C-1.1246802223496422 -2.237416916822315, -0.9910302842862897 -2.299738906453198, -0.8550503583141776 -2.3492315519647686 C-0.7190704323420656 -2.3987241974763394, -0.5766288372196942 -2.4368913078579806, -0.43412044416733236 -2.462019382530519 C-0.29161205111497057 -2.4871474572030574, -0.1447068147224489 -2.4999999999999996, -7.120580697431198e-15 -2.5 C0.14470681472243463 -2.5000000000000004, 0.29161205111495647 -2.487147457203059, 0.4341204441673183 -2.4620193825305217 C0.5766288372196802 -2.436891307857984, 0.7190704323420518 -2.3987241974763442, 0.8550503583141642 -2.349231551964774 C0.9910302842862766 -2.2997389064532037, 1.1246802223496295 -2.2374169168223212, 1.2499999999999925 -2.165063509461101 C1.3753197776503554 -2.0927101020998804, 1.4961171729167668 -2.008126855338242, 1.6069690242163412 -1.915111107797451 C1.7178208755159157 -1.82209536025666, 1.8220953602566472 -1.7178208755159294, 1.915111107797439 -1.6069690242163557 C2.0081268553382308 -1.496117172916782, 2.09271010209987 -1.3753197776503712, 2.1650635094610915 -1.2500000000000089 C2.237416916822313 -1.1246802223496466, 2.299738906453196 -0.9910302842862939, 2.3492315519647673 -0.855050358314182 C2.3987241974763385 -0.71907043234207, 2.4368913078579792 -0.5766288372196986, 2.462019382530518 -0.4341204441673369 C2.487147457203057 -0.29161205111497523, 2.4936698970884197 -0.07235340736123454, 2.5 -1.1714553645825241e-14 C2.5063301029115803 0.07235340736121111, 2.50633010291158 -0.07235340736122292, 2.5 0" stroke="none" stroke-width="0" fill="#9370DB" style=""/><path d="M2.5 0 C2.5 0.14470681472244193, 2.487147457203058 0.29161205111496386, 2.46201938253052 0.4341204441673258 C2.436891307857982 0.5766288372196877, 2.3987241974763416 0.7190704323420595, 2.3492315519647713 0.8550503583141718 C2.299738906453201 0.991030284286284, 2.2374169168223177 1.124680222349637, 2.165063509461097 1.2499999999999998 C2.092710102099876 1.3753197776503625, 2.0081268553382365 1.496117172916774, 1.915111107797445 1.6069690242163481 C1.8220953602566536 1.7178208755159223, 1.7178208755159226 1.8220953602566536, 1.6069690242163484 1.915111107797445 C1.4961171729167742 2.0081268553382365, 1.375319777650363 2.0927101020998755, 1.2500000000000002 2.1650635094610964 C1.1246802223496375 2.2374169168223172, 0.9910302842862845 2.2997389064532, 0.8550503583141721 2.349231551964771 C0.7190704323420597 2.3987241974763416, 0.576628837219688 2.436891307857982, 0.43412044416732604 2.46201938253052 C0.291612051114964 2.487147457203058, 0.14470681472244212 2.5, 1.5308084989341916e-16 2.5 C-0.1447068147224418 2.5, -0.2916120511149638 2.487147457203058, -0.43412044416732576 2.46201938253052 C-0.5766288372196877 2.436891307857982, -0.7190704323420595 2.3987241974763416, -0.8550503583141718 2.3492315519647713 C-0.991030284286284 2.299738906453201, -1.124680222349637 2.2374169168223177, -1.2499999999999996 2.165063509461097 C-1.375319777650362 2.092710102099876, -1.4961171729167733 2.008126855338237, -1.6069690242163475 1.9151111077974459 C-1.7178208755159217 1.8220953602566548, -1.822095360256653 1.7178208755159234, -1.9151111077974443 1.6069690242163495 C-2.0081268553382357 1.4961171729167755, -2.0927101020998746 1.3753197776503645, -2.1650635094610955 1.250000000000002 C-2.2374169168223164 1.1246802223496395, -2.2997389064531992 0.9910302842862865, -2.34923155196477 0.8550503583141743 C-2.3987241974763407 0.7190704323420621, -2.436891307857981 0.5766288372196907, -2.4620193825305194 0.434120444167329 C-2.487147457203058 0.29161205111496724, -2.5 0.14470681472244545, -2.5 3.636830773662308e-15 C-2.5 -0.14470681472243818, -2.4871474572030587 -0.2916120511149599, -2.4620193825305208 -0.4341204441673218 C-2.436891307857983 -0.5766288372196837, -2.398724197476343 -0.7190704323420553, -2.3492315519647726 -0.8550503583141675 C-2.2997389064532023 -0.9910302842862798, -2.23741691682232 -1.1246802223496328, -2.165063509461099 -1.2499999999999956 C-2.092710102099878 -1.3753197776503583, -2.00812685533824 -1.4961171729167695, -1.9151111077974488 -1.606969024216344 C-1.8220953602566576 -1.7178208755159183, -1.7178208755159263 -1.82209536025665, -1.6069690242163523 -1.9151111077974416 C-1.4961171729167784 -2.0081268553382334, -1.3753197776503672 -2.0927101020998724, -1.2500000000000047 -2.1650635094610937 C-1.1246802223496422 -2.237416916822315, -0.9910302842862897 -2.299738906453198, -0.8550503583141776 -2.3492315519647686 C-0.7190704323420656 -2.3987241974763394, -0.5766288372196942 -2.4368913078579806, -0.43412044416733236 -2.462019382530519 C-0.29161205111497057 -2.4871474572030574, -0.1447068147224489 -2.4999999999999996, -7.120580697431198e-15 -2.5 C0.14470681472243463 -2.5000000000000004, 0.29161205111495647 -2.487147457203059, 0.4341204441673183 -2.4620193825305217 C0.5766288372196802 -2.436891307857984, 0.7190704323420518 -2.3987241974763442, 0.8550503583141642 -2.349231551964774 C0.9910302842862766 -2.2997389064532037, 1.1246802223496295 -2.2374169168223212, 1.2499999999999925 -2.165063509461101 C1.3753197776503554 -2.0927101020998804, 1.4961171729167668 -2.008126855338242, 1.6069690242163412 -1.915111107797451 C1.7178208755159157 -1.82209536025666, 1.8220953602566472 -1.7178208755159294, 1.915111107797439 -1.6069690242163557 C2.0081268553382308 -1.496117172916782, 2.09271010209987 -1.3753197776503712, 2.1650635094610915 -1.2500000000000089 C2.237416916822313 -1.1246802223496466, 2.299738906453196 -0.9910302842862939, 2.3492315519647673 -0.855050358314182 C2.3987241974763385 -0.71907043234207, 2.4368913078579792 -0.5766288372196986, 2.462019382530518 -0.4341204441673369 C2.487147457203057 -0.29161205111497523, 2.4936698970884197 -0.07235340736123454, 2.5 -1.1714553645825241e-14 C2.5063301029115803 0.07235340736121111, 2.50633010291158 -0.07235340736122292, 2.5 0" stroke="#9370DB" stroke-width="2" fill="none" stroke-dasharray="0 0" style=""/></g></g></g></g></g></g><defs><filter id="my-svg-drop-shadow" height="130%" width="130%"><feDropShadow dx="4" dy="4" stdDeviation="0" flood-opacity="0.06" flood-color="#000000"/></filter></defs><defs><filter id="my-svg-drop-shadow-small" height="150%" width="150%"><feDropShadow dx="2" dy="2" stdDeviation="0" flood-opacity="0.06" flood-color="#000000"/></filter></defs></svg>